Control Set_states
version=1
nRows=13
nColumns=17
inDegrees=yes

# SIMM Motion File Header:
name Control Set_states
datacolumns 17
datarows 13
otherdata 1
range 0.10792558 0.12501176
endheader
time	/jointset/r_shoulder/r_shoulder_elev/value	/jointset/r_shoulder/r_shoulder_elev/speed	/jointset/r_elbow/r_elbow_flex/value	/jointset/r_elbow/r_elbow_flex/speed	/forceset/TRIlong/activation	/forceset/TRIlong/fiber_length	/forceset/TRIlat/activation	/forceset/TRIlat/fiber_length	/forceset/TRImed/activation	/forceset/TRImed/fiber_length	/forceset/BIClong/activation	/forceset/BIClong/fiber_length	/forceset/BICshort/activation	/forceset/BICshort/fiber_length	/forceset/BRA/activation	/forceset/BRA/fiber_length
      0.10792558	     -3.05888208	    -44.05553413	     10.86240454	    163.76903794	      0.01167702	      0.13883629	      0.01167702	      0.07454808	      0.01167702	      0.06958106	      0.01167702	      0.14746197	      0.01167702	      0.14625482	      0.01167702	      0.09084352
      0.10946189	     -3.12635361	    -43.77996124	     11.11380652	    163.51065612	      0.01144729	      0.13889963	      0.01144729	      0.07465278	      0.01144729	      0.06968890	      0.01144729	      0.14742405	      0.01144729	      0.14620571	      0.01144729	      0.09078356
      0.11064146	     -3.17787227	    -43.57222335	     11.30656787	    163.32464626	      0.01127407	      0.13894836	      0.01127407	      0.07473313	      0.01127407	      0.06976465	      0.01127407	      0.14739447	      0.01127407	      0.14616759	      0.01127407	      0.09073763
      0.11182102	     -3.22914601	    -43.36450940	     11.49911071	    163.13968884	      0.01110357	      0.13899719	      0.01110357	      0.07481346	      0.01110357	      0.06984513	      0.01110357	      0.14736450	      0.01110357	      0.14612911	      0.01110357	      0.09069179
      0.11357760	     -3.30504939	    -43.05875770	     11.78544295	    162.87631806	      0.01085457	      0.13907008	      0.01085457	      0.07493297	      0.01085457	      0.06996178	      0.01085457	      0.14731913	      0.01085457	      0.14607117	      0.01085457	      0.09062370
      0.11485413	     -3.35987417	    -42.83720466	     11.99324054	    162.68795581	      0.01067723	      0.13912318	      0.01067723	      0.07501993	      0.01067723	      0.07005066	      0.01067723	      0.14728560	      0.01067723	      0.14602858	      0.01067723	      0.09057435
      0.11613067	     -3.41441754	    -42.61851705	     12.20080238	    162.50882106	      0.01050289	      0.13917638	      0.01050289	      0.07510674	      0.01050289	      0.07013426	      0.01050289	      0.14725161	      0.01050289	      0.14598557	      0.01050289	      0.09052511
      0.11740721	     -3.46868216	    -42.39992012	     12.40813729	    162.33077561	      0.01033147	      0.13922969	      0.01033147	      0.07519357	      0.01033147	      0.07022207	      0.01033147	      0.14721717	      0.01033147	      0.14594216	      0.01033147	      0.09047596
      0.11894356	     -3.53362257	    -42.13990721	     12.65737417	    162.12642030	      0.01012898	      0.13929399	      0.01012898	      0.07529799	      0.01012898	      0.07032250	      0.01012898	      0.14717510	      0.01012898	      0.14588938	      0.01012898	      0.09041695
      0.12010254	     -3.58234823	    -41.94317976	     12.84518670	    161.97121492	      0.00997889	      0.13934246	      0.00997889	      0.07537654	      0.00997889	      0.07040378	      0.00997889	      0.14714289	      0.00997889	      0.14584914	      0.00997889	      0.09037250
      0.12126153	     -3.63084616	    -41.74636781	     13.03282030	    161.81584764	      0.00982967	      0.13938886	      0.00982967	      0.07545265	      0.00982967	      0.07047751	      0.00982967	      0.14710974	      0.00982967	      0.14580775	      0.00982967	      0.09032769
      0.12399832	     -3.74444351	    -41.26325451	     13.47511884	    161.39132402	      0.00947730	      0.13949378	      0.00947730	      0.07562486	      0.00947730	      0.07066921	      0.00947730	      0.14702898	      0.00947730	      0.14570597	      0.00947730	      0.09022138
      0.12501176	     -3.78617031	    -41.08242899	     13.63859724	    161.22635037	      0.00934682	      0.13953225	      0.00934682	      0.07569484	      0.00934682	      0.07071996	      0.00934682	      0.14699831	      0.00934682	      0.14566742	      0.00934682	      0.09018205
